#N canvas 1070 300 191 263 10;
#X obj 28 129 f 1;
#X obj 72 128 + 1;
#X obj 28 62 bng 15 250 50 0 empty empty empty 17 7 0 10 -262144 -1
-1;
#X obj 126 211 bng 15 250 50 0 empty empty empty 17 7 0 10 -262144
-1 -1;
#X msg 123 80 0;
#X floatatom 72 155 5 0 0 0 - - -;
#X obj 28 29 inlet;
#X obj 72 179 sel \$1;
#X obj 26 179 outlet;
#X connect 0 0 1 0;
#X connect 1 0 0 1;
#X connect 1 0 5 0;
#X connect 2 0 0 0;
#X connect 3 0 4 0;
#X connect 4 0 0 1;
#X connect 5 0 7 0;
#X connect 5 0 8 0;
#X connect 6 0 2 0;
#X connect 7 0 3 0;
