#N canvas 560 0 815 963 10;
#X obj 604 175 cos~;
#X obj 604 156 -~ 0.25;
#X obj 604 137 *~ 0.5;
#X obj 602 359 *~ 1;
#X obj 603 419 *~ 1;
#X obj 289 445 vd~ \$0-tap;
#X obj 8 264 noise~;
#X obj 8 285 *~ 0.5;
#X obj 9 307 +~ 0.5;
#X obj 9 348 *~ 0;
#X obj 288 476 *~;
#X obj 181 82 noise~;
#X obj 207 102 *~ 0;
#X obj 603 380 clip~ 0 1;
#X obj 230 43 * 0.01;
#X obj 604 276 -~ 0;
#X obj 627 214 * 0.01;
#X obj 603 319 clip~ 0 1;
#X msg 627 233 1 \$1;
#X obj 627 256 -;
#X obj 604 298 *~ 1;
#X obj 657 256 /;
#X obj 604 118 r~ \$0-sched;
#X obj 206 208 s~ \$0-sched;
#X obj 265 143 r~ \$0-sched;
#X obj 206 164 samphold~;
#X obj 318 226 r~ \$0-sched;
#X obj 515 269 * 0.01;
#X obj 515 321 - 1;
#X obj 318 312 *~;
#X obj 319 292 /~;
#X obj 290 425 -~;
#X obj 318 249 *~ 1000;
#X obj 403 307 noise~;
#X obj 429 329 *~ 0;
#X obj 429 350 +~;
#X obj 450 247 * 0.01;
#X obj 481 349 r~ \$0-sched;
#X obj 429 373 samphold~;
#X obj 206 142 +~ 1;
#X obj 206 185 phasor~ 1;
#X obj 132 404 +~;
#X obj 196 230 s~ \$0-sched-freq;
#X obj 166 363 r~ \$0-sched-freq;
#X obj 149 383 /~;
#X obj 429 397 s~ \$0-current-pitch;
#X obj 148 303 r~ \$0-current-pitch;
#X obj 149 344 *~ 1000;
#X text 597 97 Creates the envelope;
#X text 149 274 Adds length of current;
#X text 149 286 grain to the delay;
#X text 4 232 Randomly picks a starting;
#X text 4 246 point in the delay buffer;
#X text 159 3 Controls the master scheduling;
#X text 159 16 [phasor~];
#X text 304 196 Continuously moves the read point;
#X text 304 208 to control pitch;
#X obj 398 530 samphold~;
#X obj 399 473 noise~;
#X obj 455 511 r~ \$0-sched;
#X obj 226 631 *~;
#X obj 398 630 *~;
#X obj 398 511 *~;
#X obj 397 549 *~ 0.5;
#X obj 242 611 +~ 0.5;
#X obj 413 611 -~;
#X msg 413 591 0.5;
#X obj 413 570 loadbang;
#X msg 98 134 reset;
#X obj 98 113 r \$2-reset;
#X obj 9 370 samphold~;
#X obj 60 348 r~ \$0-sched;
#X obj 415 35 delwrite~ \$0-tap 3000;
#X obj 149 324 clip~ 0 4;
#X obj 229 121 r \$2-density;
#X obj 281 62 r \$2-density;
#X obj 230 22 r \$2-density_randomness;
#X obj 32 327 r \$2-max_delay;
#X obj 450 227 r \$2-pitch_randomness;
#X obj 627 195 r \$2-grain_length;
#X obj 625 339 r \$2-envelope_sharpness;
#X obj 626 399 r \$2-amplitude;
#X obj 515 249 r \$2-pitch;
#X obj 85 94 loadbang;
#X obj 414 492 r \$2-stereo_spread;
#X obj 226 652 outlet~;
#X obj 399 651 outlet~;
#X obj 414 14 inlet~;
#X obj 336 268 r~ \$0-sched-freq;
#X obj 450 300 util/mult;
#X obj 230 82 util/mult;
#X connect 0 0 15 0;
#X connect 1 0 0 0;
#X connect 2 0 1 0;
#X connect 3 0 13 0;
#X connect 4 0 10 1;
#X connect 5 0 10 0;
#X connect 6 0 7 0;
#X connect 7 0 8 0;
#X connect 8 0 9 0;
#X connect 9 0 70 0;
#X connect 10 0 60 0;
#X connect 10 0 61 0;
#X connect 11 0 12 0;
#X connect 12 0 39 0;
#X connect 13 0 4 0;
#X connect 14 0 90 0;
#X connect 15 0 20 0;
#X connect 16 0 18 0;
#X connect 17 0 3 0;
#X connect 18 0 19 0;
#X connect 18 0 21 0;
#X connect 19 0 15 1;
#X connect 20 0 17 0;
#X connect 21 0 20 1;
#X connect 22 0 2 0;
#X connect 24 0 25 1;
#X connect 25 0 40 0;
#X connect 25 0 42 0;
#X connect 26 0 32 0;
#X connect 27 0 28 0;
#X connect 27 0 89 1;
#X connect 28 0 35 1;
#X connect 29 0 31 1;
#X connect 30 0 29 0;
#X connect 31 0 5 0;
#X connect 32 0 30 0;
#X connect 33 0 34 0;
#X connect 34 0 35 0;
#X connect 35 0 38 0;
#X connect 36 0 89 0;
#X connect 37 0 38 1;
#X connect 38 0 29 1;
#X connect 38 0 45 0;
#X connect 39 0 25 0;
#X connect 40 0 23 0;
#X connect 41 0 31 0;
#X connect 43 0 44 1;
#X connect 44 0 41 1;
#X connect 46 0 73 0;
#X connect 47 0 44 0;
#X connect 57 0 63 0;
#X connect 58 0 62 0;
#X connect 59 0 57 1;
#X connect 60 0 85 0;
#X connect 61 0 86 0;
#X connect 62 0 57 0;
#X connect 63 0 64 0;
#X connect 63 0 65 1;
#X connect 64 0 60 1;
#X connect 65 0 61 1;
#X connect 66 0 65 0;
#X connect 67 0 66 0;
#X connect 68 0 25 0;
#X connect 69 0 68 0;
#X connect 70 0 41 0;
#X connect 71 0 70 1;
#X connect 73 0 47 0;
#X connect 74 0 39 1;
#X connect 75 0 90 1;
#X connect 76 0 14 0;
#X connect 77 0 9 1;
#X connect 78 0 36 0;
#X connect 79 0 16 0;
#X connect 80 0 3 1;
#X connect 81 0 4 1;
#X connect 82 0 27 0;
#X connect 83 0 68 0;
#X connect 84 0 62 1;
#X connect 87 0 72 0;
#X connect 88 0 30 1;
#X connect 89 0 34 1;
#X connect 90 0 12 1;
