#N canvas 710 22 427 382 10;
#X msg 144 51 \$2;
#X obj 207 130 list-extend;
#X msg 77 53 \$1;
#X obj 77 78 sel 20;
#X obj 77 103 bng 15 250 50 0 empty empty empty 17 7 0 10 -262144 -1
-1;
#X text 295 105 reset array;
#X obj 270 105 bng 15 250 50 0 empty empty empty 17 7 0 10 -262144
-1 -1;
#X obj 270 74 r \$0-reset-list;
#X obj 77 158 s \$0-reset-list;
#X msg 207 46 \$3;
#X obj 186 158 list;
#X obj 219 235 ms_listavg;
#X floatatom 219 267 5 0 0 0 - - -;
#X obj 159 235 vstd;
#X floatatom 159 269 5 0 0 0 - - -;
#X text 286 235 average;
#X text 81 234 standard dev;
#X obj 144 13 inlet;
#X text 182 14 from the last fiddle~ outlet;
#X obj 441 388 iyt;
#X obj 115 269 outlet;
#X connect 1 0 10 1;
#X connect 2 0 3 0;
#X connect 3 0 4 0;
#X connect 4 0 8 0;
#X connect 4 0 10 0;
#X connect 6 0 1 1;
#X connect 7 0 6 0;
#X connect 9 0 1 0;
#X connect 10 0 11 0;
#X connect 10 0 13 0;
#X connect 11 0 12 0;
#X connect 13 0 14 0;
#X connect 13 0 20 0;
#X connect 17 0 2 0;
#X connect 17 0 0 0;
#X connect 17 0 9 0;
