#N canvas 661 536 450 300 10;
#X obj -217 15 inlet~;
#X obj -157 75 r~;
#X obj -156 51 prepend set;
#X obj -156 4 bng 15 250 50 0 empty empty empty 17 7 0 10 -262144 -1
-1;
#X obj -136 2 loadbang;
#X obj -156 29 symbol \$2;
#X obj -185 128 outlet~;
#X connect 0 0 6 0;
#X connect 1 0 6 0;
#X connect 2 0 1 0;
#X connect 3 0 5 0;
#X connect 4 0 5 0;
#X connect 5 0 2 0;
