#N canvas 143 95 170 261 10;
#X obj 29 88 list_sum;
#X floatatom 29 113 5 0 0 0 - - -;
#X floatatom 74 113 5 0 0 0 - - -;
#X obj 29 53 prepend all;
#X obj 45 140 /;
#X floatatom 45 164 5 0 0 0 - - -;
#X obj 29 24 inlet;
#X text 74 27 incoming list;
#X obj 20 207 outlet;
#X obj 93 207 outlet;
#X text 24 225 avg;
#X text 92 227 length;
#X connect 0 0 1 0;
#X connect 0 1 2 0;
#X connect 1 0 4 0;
#X connect 2 0 4 1;
#X connect 2 0 9 0;
#X connect 3 0 0 0;
#X connect 4 0 5 0;
#X connect 5 0 8 0;
#X connect 6 0 3 0;
