#N canvas 264 189 219 308 10;
#X obj 39 132 list_sum;
#X floatatom 39 157 5 0 0 0 - - -;
#X floatatom 84 157 5 0 0 0 - - -;
#X obj 39 86 prepend all;
#X obj 55 184 /;
#X floatatom 55 208 5 0 0 0 - - -;
#X obj 39 34 inlet;
#X text 84 37 incoming list;
#X obj 30 251 outlet;
#X obj 103 251 outlet;
#X text 34 269 avg;
#X text 102 271 length;
#N canvas 0 22 450 300 list-abs 0;
#X obj 107 31 inlet;
#X obj 107 58 t b a b;
#X obj 129 117 list-drip;
#X obj 129 162 abs;
#X obj 129 140 route float;
#X obj 129 216 list prepend;
#X obj 222 216 t l;
#X obj 106 246 list;
#X obj 106 274 outlet;
#X text 69 2 list-abs: apply abs() on float elements of a list.;
#X connect 0 0 1 0;
#X connect 1 0 7 0;
#X connect 1 1 2 0;
#X connect 1 2 5 1;
#X connect 2 0 4 0;
#X connect 3 0 5 0;
#X connect 4 0 3 0;
#X connect 4 1 5 0;
#X connect 5 0 6 0;
#X connect 5 0 7 1;
#X connect 6 0 5 1;
#X connect 7 0 8 0;
#X restore 39 60 pd list-abs;
#X connect 0 0 1 0;
#X connect 0 1 2 0;
#X connect 1 0 4 0;
#X connect 2 0 4 1;
#X connect 2 0 9 0;
#X connect 3 0 0 0;
#X connect 4 0 5 0;
#X connect 5 0 8 0;
#X connect 6 0 12 0;
#X connect 12 0 3 0;
