#N canvas 0 0 607 413 10;
#X obj 40 46 inlet;
#X obj 40 217 sqrt;
#X obj 40 238 outlet;
#X obj 114 93 list-mean;
#X obj 40 114 list-math -;
#X obj 40 155 list-math pow 2;
#X obj 40 175 list-accum;
#X obj 40 67 t l l l;
#X obj 197 91 list length;
#X obj 40 196 /;
#X obj 40 135 list-abs2;
#X connect 0 0 7 0;
#X connect 1 0 2 0;
#X connect 3 0 4 1;
#X connect 4 0 10 0;
#X connect 5 0 6 0;
#X connect 6 0 9 0;
#X connect 7 0 4 0;
#X connect 7 1 3 0;
#X connect 7 2 8 0;
#X connect 8 0 9 1;
#X connect 9 0 1 0;
#X connect 10 0 5 0;

