#N canvas 1950 408 407 296 10;
#X floatatom 102 59 5 0 0 0 - - -;
#X floatatom 46 62 5 0 0 0 - curPitch -;
#X obj 89 118 ==;
#X obj 89 195 bng 15 250 50 0 empty empty empty 17 7 0 10 -262144 -1
-1;
#X obj 89 170 sel 1;
#X msg 133 110 set \$1;
#X floatatom 143 216 5 0 0 0 - - -;
#X text 45 42 pitch;
#X obj 63 232 outlet;
#X obj 143 242 outlet;
#X text 160 25 pitch is set via creation arg;
#X obj 103 29 float \$1;
#X obj 103 4 loadbang;
#X obj 89 143 change;
#X connect 0 0 2 1;
#X connect 1 0 2 0;
#X connect 1 0 5 0;
#X connect 2 0 13 0;
#X connect 3 0 6 0;
#X connect 3 0 8 0;
#X connect 4 0 3 0;
#X connect 5 0 6 0;
#X connect 6 0 9 0;
#X connect 11 0 0 0;
#X connect 12 0 11 0;
#X connect 13 0 4 0;
