#N canvas 1248 468 400 382 10;
#X floatatom 83 83 5 0 0 0 - - -;
#X floatatom 26 86 5 0 0 0 - - -;
#X obj 38 223 sel 1;
#X msg 135 187 set \$1;
#X floatatom 125 298 5 0 0 0 - - -;
#X obj 38 316 outlet;
#X obj 125 324 outlet;
#X obj 83 28 loadbang;
#X text 121 81 set via creation arg;
#X obj 26 13 r \$1;
#X obj 83 53 float \$2;
#X obj 68 259 onebang;
#X obj 106 239 bng 15 250 50 0 empty empty empty 17 7 0 10 -262144
-1 -1;
#X obj 95 215 sel 0;
#X obj 50 191 <;
#X obj 14 155 moses;
#X obj 24 250 bng 15 250 50 0 empty empty empty 17 7 0 10 -262144 -1
-1;
#X obj 30 43 t f b;
#X obj 70 288 bng 15 250 50 0 empty empty empty 17 7 0 10 -262144 -1
-1;
#X floatatom 88 195 5 0 0 0 - - -;
#X obj 41 131 + 4;
#X obj 65 163 - 4;
#X connect 0 0 20 0;
#X connect 0 0 21 0;
#X connect 1 0 3 0;
#X connect 1 0 15 0;
#X connect 2 0 11 0;
#X connect 2 0 16 0;
#X connect 3 0 4 0;
#X connect 4 0 6 0;
#X connect 7 0 10 0;
#X connect 9 0 17 0;
#X connect 10 0 0 0;
#X connect 11 0 5 0;
#X connect 11 0 4 0;
#X connect 11 0 18 0;
#X connect 12 0 11 1;
#X connect 13 0 12 0;
#X connect 14 0 13 0;
#X connect 14 0 2 0;
#X connect 14 0 19 0;
#X connect 15 0 14 0;
#X connect 17 0 1 0;
#X connect 17 1 10 0;
#X connect 20 0 15 1;
#X connect 21 0 14 1;
