#N canvas 998 284 298 223 10;
#X obj 42 24 rvu~;
#X obj 43 48 vu 15 120 empty empty -1 -8 0 4 -66577 -1 1 0;
#X obj 42 -2 inlet~;
#X obj 92 -3 r~ \$1;
#X obj 137 26 rvu~;
#X obj 61 48 vu 15 120 empty empty -1 -8 0 10 -66577 -1 1 0;
#X obj 137 0 inlet~;
#X obj 187 -1 r~ \$2;
#X connect 0 0 1 0;
#X connect 2 0 0 0;
#X connect 3 0 0 0;
#X connect 4 0 5 0;
#X connect 6 0 4 0;
#X connect 7 0 4 0;
#X coords 0 -1 1 1 70 135 2 40 40;
