#N canvas 259 77 685 616 10;
#X obj 100 382 *~;
#X floatatom -14 137 0 0 0 0 - - -;
#X text 98 426 audio output;
#X obj 83 262 osc~ 1000;
#X obj -16 24 hradio 15 1 0 6 empty empty empty 0 -6 0 8 -262144 -1
-1 2;
#X msg -80 259 choice \$1;
#X obj 36 388 rvu~;
#X obj 139 56 vu 20 120 empty empty -1 -8 0 8 -66577 -1 1 0;
#X obj 2 319 polygate~ 5 200;
#X obj -65 191 t i b;
#X obj 196 266 adc~;
#X text 10 137 frequency;
#X obj 36 418 s vu;
#X obj 139 25 r vu;
#X msg 275 303 0;
#X obj 275 277 moses 0.011;
#X obj 113 55 vsl 20 120 0 127 0 0 \$0-fader \$0-fader empty 0 -9 1
10 -66577 -204800 -1 11900 0;
#X obj 275 224 * 0.01;
#X floatatom 275 254 5 0 0 0 - - -;
#X msg 297 328 \$1 10;
#X obj -59 368 send~ \$1;
#X msg -76 146 440;
#X obj -76 119 loadbang;
#X obj 148 263 noise~;
#X obj 100 408 outlet~;
#X obj 275 200 r \$0-fader;
#X obj 297 354 line~;
#X text -17 40 0 off;
#X text -17 67 2 phasor~;
#X text -17 80 3 osc~;
#X text -16 93 4 noise~;
#X text -16 107 5 adc~;
#X obj 31 262 phasor~;
#X obj -5 261 cos~;
#X obj 45 218 sig~;
#X text -17 54 1 cos~;
#X connect 0 0 24 0;
#X connect 0 0 6 0;
#X connect 1 0 34 0;
#X connect 3 0 8 2;
#X connect 4 0 9 0;
#X connect 5 0 8 0;
#X connect 6 0 12 0;
#X connect 8 0 0 0;
#X connect 8 0 20 0;
#X connect 9 0 5 0;
#X connect 9 1 1 0;
#X connect 10 0 8 4;
#X connect 13 0 7 0;
#X connect 14 0 19 0;
#X connect 15 0 14 0;
#X connect 15 1 19 0;
#X connect 17 0 18 0;
#X connect 18 0 15 0;
#X connect 19 0 26 0;
#X connect 21 0 1 0;
#X connect 22 0 21 0;
#X connect 23 0 8 3;
#X connect 25 0 17 0;
#X connect 26 0 0 1;
#X connect 32 0 8 1;
#X connect 33 0 8 0;
#X connect 34 0 32 0;
#X connect 34 0 3 0;
#X connect 34 0 33 0;
#X coords 0 -1 1 1 240 165 2 -20 20;
