#N canvas 756 85 449 486 10;
#X obj 143 308 dac~ 1;
#X obj 143 280 *~;
#X floatatom -15 51 0 0 0 0 - - -;
#X text 141 332 audio output;
#X obj 17 282 metro 500;
#X text -21 332 graph the output;
#X obj -20 310 tabwrite~ array99;
#X obj 43 131 osc~ 1000;
#X obj 25 254 tgl 15 0 empty empty empty 17 7 0 10 -262144 -1 -1 0
1;
#X obj -16 -36 hradio 15 1 0 4 empty empty empty 0 -6 0 8 -262144 -1
-1 0;
#X obj 27 104 gate 5;
#X msg -81 134 choice \$1;
#X obj 112 349 rvu~;
#X obj 103 -30 vu 20 120 empty empty -1 -8 0 8 -66577 -1 1 0;
#X obj 1 194 polygate~ 5 200;
#X obj -24 79 t i b;
#X obj -11 134 phasor~;
#X obj 152 129 adc~;
#X text 9 51 frequency;
#X obj 108 379 s vu;
#X obj 109 -61 r vu;
#X msg 186 222 0;
#X obj 186 196 moses 0.011;
#X obj 77 -31 vsl 20 120 0 127 0 0 \$0-fader \$0-fader empty 0 -9 1
10 -66577 -204800 -1 0 0;
#X obj 186 143 * 0.01;
#X floatatom 186 173 5 0 0 0 - - -;
#X msg 201 257 \$1 10;
#X obj 78 100 s v;
#X obj 188 118 r v;
#X obj -72 387 send~ \$1;
#X msg -77 60 440;
#X obj -77 33 loadbang;
#X obj 104 129 noise~;
#X text -16 -20 0 off 1 phasor~ 2 osc~ 3 noise~ 4 adc~;
#X connect 1 0 0 0;
#X connect 2 0 10 1;
#X connect 4 0 6 0;
#X connect 7 0 14 1;
#X connect 8 0 4 0;
#X connect 9 0 15 0;
#X connect 10 0 16 0;
#X connect 10 1 7 0;
#X connect 11 0 14 0;
#X connect 12 0 19 0;
#X connect 14 0 1 0;
#X connect 14 0 6 0;
#X connect 14 0 12 0;
#X connect 14 0 29 0;
#X connect 15 0 10 0;
#X connect 15 0 11 0;
#X connect 15 1 2 0;
#X connect 16 0 14 0;
#X connect 17 0 14 2;
#X connect 20 0 13 0;
#X connect 21 0 26 0;
#X connect 22 0 21 0;
#X connect 22 1 26 0;
#X connect 23 0 27 0;
#X connect 24 0 25 0;
#X connect 25 0 22 0;
#X connect 26 0 1 1;
#X connect 28 0 24 0;
#X connect 30 0 2 0;
#X connect 31 0 30 0;
#X coords 0 -1 1 1 180 140 2 -20 -40;
