#N canvas 1360 803 450 300 10;
#X obj 34 27 r next_cue;
#X obj 34 57 unpack;
#X msg 0 171 0;
#X obj 81 83 t b f b f;
#X obj 146 190 symbol;
#X msg 77 160 1;
#X obj 164 117 + 1;
#X obj 108 252 s;
#X msg 151 151 cue\$1;
#X msg 214 111 3;
#X connect 0 0 1 0;
#X connect 1 1 3 0;
#X connect 2 0 7 0;
#X connect 3 0 2 0;
#X connect 3 1 8 0;
#X connect 3 2 5 0;
#X connect 3 3 6 0;
#X connect 4 0 7 1;
#X connect 5 0 7 0;
#X connect 6 0 8 0;
#X connect 8 0 4 0;
#X connect 9 0 8 0;
